<svg width="56" height="56" viewBox="0 0 56 56" fill="none" xmlns="http://www.w3.org/2000/svg">
<path fill-rule="evenodd" clip-rule="evenodd" d="M17.9653 50.8706H27.9578C29.0944 50.8706 30.2332 50.8729 31.3735 50.8753C33.6589 50.8799 35.9504 50.8845 38.2418 50.8706C39.2332 50.8852 40.2148 50.6713 41.1101 50.2453C42.0055 49.8192 42.7907 49.1927 43.4046 48.4141C44.116 47.5431 44.6451 46.5709 45.1755 45.5962C45.4057 45.1731 45.6362 44.7497 45.8819 44.3338C48.7549 39.4208 51.6277 34.4869 54.3965 29.5115C55.4998 27.5546 55.4581 25.3063 54.4172 23.4327C53.3764 21.5591 52.3147 19.7063 51.2322 17.8326L44.05 5.34194C43.7169 4.73824 43.3631 4.59258 42.7593 5.05051C41.8716 5.68735 40.975 6.31076 40.0798 6.93316C39.0436 7.65366 38.0092 8.37283 36.9928 9.10999C34.5987 10.8379 34.0366 13.1695 35.4938 15.7509C37.3259 19.0401 39.2202 22.2877 41.1355 25.5352C41.4894 26.1182 41.5519 26.597 41.2188 27.1591C40.657 28.1369 40.093 29.1146 39.5289 30.0924C38.3998 32.05 37.2707 34.0074 36.1601 35.965C35.8061 36.5687 35.5771 36.4646 35.1816 35.965C34.2838 34.8589 33.3613 33.7651 32.4333 32.6645C32.1562 32.3359 31.8786 32.0068 31.601 31.6765C29.644 29.4074 26.4172 29.3658 24.4395 31.6349C23.4612 32.7591 22.5035 33.9041 21.5667 35.049C20.9228 35.8302 20.6107 36.2207 20.3266 36.2012C20.0503 36.1824 19.8005 35.7765 19.2976 34.9658L19.131 34.6951L14.7177 27.055C14.4678 26.597 14.3637 26.2639 14.7177 25.681C16.6954 22.4334 18.6106 19.1651 20.4634 15.8342C22.0248 13.0238 21.4626 10.8795 18.8604 8.98506C17.934 8.31895 16.9972 7.6684 16.0604 7.01784C15.1236 6.36728 14.1868 5.71672 13.2604 5.05051C12.6359 4.57174 12.3028 4.67583 11.9281 5.36278C8.6805 11.0461 5.4329 16.7085 2.10204 22.3293C0.478293 25.0773 0.457455 27.7004 2.06037 30.4483C3.98287 33.725 5.88422 37.0086 7.78497 40.2911C9.15683 42.6604 10.5284 45.029 11.9073 47.394C13.2604 49.7256 15.2797 50.8914 17.9653 50.8706ZM13.1563 19.7479C12.7816 20.3933 12.4901 21.0387 12.157 21.7048C12.0451 21.722 11.9341 21.7438 11.8243 21.7705C11.7753 21.7823 11.7265 21.7952 11.6783 21.8089C11.4284 21.3925 11.2202 20.9553 10.9496 20.5598C9.92957 19.0401 9.97115 17.4371 10.8664 15.9799C11.7615 14.5226 12.6359 13.0238 13.4894 11.5249C13.7809 11.0044 14.0099 10.9003 14.4887 11.3167C15.0172 11.7614 15.5891 12.152 16.1958 12.4825C16.9036 12.878 16.9036 13.3152 16.5288 13.9398L13.1563 19.7479ZM6.11985 24.2238L7.01508 22.7665C7.55433 23.3208 7.89953 23.9613 8.2369 24.5872C8.36844 24.8311 8.49875 25.0728 8.63883 25.3063L16.9451 39.7955C18.1318 41.8565 21.1087 42.71 23.3362 39.8788C24.1114 38.8988 25.0099 37.816 25.808 36.8544C26.1457 36.4473 26.4655 36.062 26.7503 35.7153C27.708 34.5494 28.3534 34.591 29.311 35.7568L29.8076 36.3599C30.9128 37.7031 32.0243 39.0539 33.183 40.3576C34.9734 42.3977 37.7006 42.1063 39.0537 39.7539L47.4017 25.2855C47.7085 24.7519 48.0322 24.227 48.3678 23.6832C48.5559 23.3782 48.7477 23.0673 48.9422 22.7457L49.1217 23.0307C49.4997 23.6306 49.8195 24.1381 50.108 24.661C50.8158 25.9309 50.7117 27.2007 50.0039 28.429C48.8416 30.4551 47.6729 32.4812 46.5029 34.5097C44.6554 37.7127 42.8044 40.9218 40.969 44.1465C40.0322 45.7911 38.7623 46.4989 36.8262 46.478C30.9764 46.3948 25.1266 46.3739 19.2559 46.478C17.1326 46.5197 15.8627 45.6453 14.8633 43.8758C11.9905 38.7546 9.03435 33.675 6.07827 28.5955C5.18304 27.0759 5.14147 25.681 6.11985 24.2238ZM45.4448 16.5836C45.7042 17.0397 45.8338 17.558 45.8195 18.0825C45.8404 19.3107 45.2367 20.3101 44.6121 21.3301C44.2373 21.9338 43.9667 21.8921 43.6128 21.2884C42.5095 19.2483 41.4686 17.4163 40.2404 15.2304C39.0538 13.1189 39.0718 13.1054 40.8569 11.7559L41.0522 11.6081C41.9682 10.942 42.3637 11.1709 42.8218 11.9829L45.4448 16.5836Z" fill="#F2D027"/>
</svg>
