<svg width="20" height="20" viewBox="0 0 20 20" fill="none" xmlns="http://www.w3.org/2000/svg">
<path d="M5.83398 5.83333C9.07473 4.72222 10.9266 4.72222 14.1673 5.83333" stroke="white" stroke-width="1.25" stroke-linecap="round" stroke-linejoin="round"/>
<path d="M5.83398 14.168C8.75065 15.2791 11.2507 15.2791 14.1673 14.168" stroke="white" stroke-width="1.25" stroke-linecap="round" stroke-linejoin="round"/>
<path d="M2.08268 7.91667L1.66602 11.6667V13.3333L2.91602 16.6667L5.41602 17.5L7.49935 15H12.0827L14.9993 17.5L17.4993 16.25L18.3327 13.3333L17.916 7.91667L16.2493 3.33333L12.916 2.5L11.666 5H8.33268L7.08268 2.5L3.33268 3.75L2.08268 7.91667Z" fill="white"/>
<path d="M7.3802 14.6875C7.3802 15.625 5.61272 17.5 5.1594 17.5C3.79846 17.5 2.58991 15.9372 1.98516 14.6875C1.38041 13.1247 1.53184 9.21908 3.34514 3.90625C4.66702 2.95468 5.99462 2.65 7.38031 2.5L8.33268 5" stroke="white" stroke-width="1.25" stroke-linecap="round" stroke-linejoin="round"/>
<path d="M12.6185 14.6875C12.6185 15.625 14.3859 17.5 14.8393 17.5C16.2003 17.5 17.4088 15.9372 18.0135 14.6875C18.6183 13.1247 18.4668 9.21908 16.6535 3.90625C15.3317 2.95468 14.0041 2.65 12.6183 2.5L11.666 5" stroke="white" stroke-width="1.25" stroke-linecap="round" stroke-linejoin="round"/>
<path d="M6.25841 10H6.25M13.75 10H13.7416" stroke="#020007" stroke-width="1.66667" stroke-linecap="round" stroke-linejoin="round"/>
</svg>
