<svg width="64" height="64" viewBox="0 0 64 64" fill="none" xmlns="http://www.w3.org/2000/svg">
<path d="M52.5879 32.34C52.3854 32.2225 52.1629 32.1101 51.9329 32C52.1629 31.89 52.3854 31.7775 52.5879 31.66C53.7344 31.0082 54.7406 30.1361 55.5486 29.0938C56.3566 28.0515 56.9505 26.8597 57.296 25.587C57.6416 24.3142 57.7319 22.9857 57.5619 21.6779C57.392 20.3701 56.965 19.1089 56.3056 17.9668C55.6461 16.8247 54.7673 15.8243 53.7197 15.0232C52.6721 14.2221 51.4764 13.6361 50.2014 13.2991C48.9264 12.962 47.5973 12.8804 46.2907 13.0591C44.984 13.2377 43.7256 13.6731 42.5879 14.34C42.3854 14.4575 42.1754 14.59 41.9679 14.7375C41.9879 14.4875 42.0004 14.2375 42.0004 13.9875C42.0004 11.3354 40.9468 8.79185 39.0715 6.91648C37.1961 5.04112 34.6526 3.98755 32.0004 3.98755C29.3482 3.98755 26.8047 5.04112 24.9293 6.91648C23.054 8.79185 22.0004 11.3354 22.0004 13.9875C22.0004 14.2225 22.0004 14.4725 22.0329 14.7375C21.8254 14.595 21.6154 14.4575 21.4129 14.34C20.2752 13.6731 19.0168 13.2377 17.7102 13.0591C16.4035 12.8804 15.0744 12.962 13.7995 13.2991C12.5245 13.6361 11.3287 14.2221 10.2811 15.0232C9.23351 15.8243 8.35469 16.8247 7.69528 17.9668C7.03586 19.1089 6.60887 20.3701 6.43889 21.6779C6.2689 22.9857 6.35928 24.3142 6.70481 25.587C7.05035 26.8597 7.64422 28.0515 8.45224 29.0938C9.26026 30.1361 10.2665 31.0082 11.4129 31.66C11.6154 31.7775 11.8379 31.89 12.0679 32C11.8379 32.1101 11.6154 32.2225 11.4129 32.34C10.2665 32.9919 9.26026 33.864 8.45224 34.9063C7.64422 35.9486 7.05035 37.1404 6.70481 38.4131C6.35928 39.6859 6.2689 41.0144 6.43889 42.3222C6.60887 43.63 7.03586 44.8912 7.69528 46.0333C8.35469 47.1754 9.23351 48.1758 10.2811 48.9769C11.3287 49.778 12.5245 50.364 13.7995 50.701C15.0744 51.0381 16.4035 51.1197 17.7102 50.941C19.0168 50.7624 20.2752 50.327 21.4129 49.66C21.6154 49.5425 21.8254 49.41 22.0329 49.2626C22.0129 49.5126 22.0004 49.7626 22.0004 50C22.0004 52.6522 23.054 55.1958 24.9293 57.0711C26.8047 58.9465 29.3482 60 32.0004 60C34.6526 60 37.1961 58.9465 39.0715 57.0711C40.9468 55.1958 42.0004 52.6522 42.0004 50C42.0004 49.765 41.9879 49.515 41.9679 49.2626C42.1754 49.4051 42.3854 49.5425 42.5879 49.66C44.1027 50.5376 45.8223 50.9998 47.5729 51C48.4526 50.9989 49.3283 50.8829 50.1779 50.655C52.0884 50.143 53.804 49.0759 55.108 47.5888C56.412 46.1016 57.2457 44.2612 57.5036 42.3002C57.7616 40.3393 57.4323 38.3458 56.5573 36.572C55.6823 34.7982 54.3009 33.3238 52.5879 32.335V32.34ZM32.0004 39C30.6159 39 29.2626 38.5895 28.1114 37.8203C26.9603 37.0512 26.0631 35.9579 25.5333 34.6788C25.0034 33.3997 24.8648 31.9923 25.1349 30.6344C25.405 29.2766 26.0717 28.0293 27.0507 27.0503C28.0296 26.0713 29.2769 25.4046 30.6348 25.1346C31.9926 24.8645 33.4001 25.0031 34.6792 25.5329C35.9583 26.0627 37.0515 26.9599 37.8207 28.1111C38.5899 29.2622 39.0004 30.6156 39.0004 32C39.0004 33.8566 38.2629 35.637 36.9502 36.9498C35.6374 38.2626 33.8569 39 32.0004 39Z" fill="url(#paint0_linear_1654_3578)"/>
<defs>
<linearGradient id="paint0_linear_1654_3578" x1="32.0004" y1="3.98755" x2="31.9997" y2="89.1297" gradientUnits="userSpaceOnUse">
<stop stop-color="#FFFF37"/>
<stop offset="1" stop-color="#055B5C"/>
</linearGradient>
</defs>
</svg>
