<svg width="24" height="44" viewBox="0 0 24 44" fill="none" xmlns="http://www.w3.org/2000/svg">
<path d="M23.4161 23.4149L3.41611 43.4149C3.23029 43.6007 3.00969 43.7481 2.7669 43.8487C2.52412 43.9492 2.2639 44.001 2.00111 44.001C1.73832 44.001 1.47811 43.9492 1.23532 43.8487C0.992533 43.7481 0.771931 43.6007 0.586111 43.4149C0.400291 43.2291 0.25289 43.0085 0.152325 42.7657C0.0517594 42.5229 0 42.2627 0 41.9999C0 41.7371 0.0517594 41.4769 0.152325 41.2341C0.25289 40.9913 0.400291 40.7707 0.586111 40.5849L19.1736 21.9999L0.586111 3.41489C0.21083 3.03961 -3.95423e-09 2.53062 0 1.99989C3.95423e-09 1.46916 0.21083 0.960173 0.586111 0.584891C0.961392 0.20961 1.47038 -0.0012207 2.00111 -0.0012207C2.53184 -0.00122071 3.04083 0.20961 3.41611 0.584891L23.4161 20.5849C23.6021 20.7706 23.7496 20.9912 23.8502 21.234C23.9509 21.4768 24.0027 21.7371 24.0027 21.9999C24.0027 22.2627 23.9509 22.523 23.8502 22.7658C23.7496 23.0086 23.6021 23.2291 23.4161 23.4149Z" fill="white"/>
</svg>
