<svg width="28" height="25" viewBox="0 0 28 25" fill="none" xmlns="http://www.w3.org/2000/svg">
<path d="M27.5 8.68274C27.3128 8.46895 27.0822 8.2975 26.8235 8.17981C26.5649 8.06213 26.2841 8.00091 26 8.00024H21.4537L14.75 0.341492C14.6561 0.235085 14.5407 0.149865 14.4114 0.0914917C14.2821 0.0331187 14.1418 0.00292969 14 0.00292969C13.8581 0.00292969 13.7178 0.0331187 13.5885 0.0914917C13.4592 0.149865 13.3438 0.235085 13.25 0.341492L6.54622 8.00024H1.99997C1.71505 8.00025 1.43342 8.06113 1.17394 8.1788C0.914465 8.29648 0.683124 8.46824 0.495413 8.68258C0.307702 8.89692 0.167953 9.1489 0.0855257 9.42163C0.00309808 9.69437 -0.020106 9.98156 0.0174674 10.264L1.74997 23.2652C1.8142 23.7457 2.05076 24.1865 2.41566 24.5057C2.78056 24.8248 3.24895 25.0006 3.73372 25.0002H24.2662C24.751 25.0006 25.2194 24.8248 25.5843 24.5057C25.9492 24.1865 26.1857 23.7457 26.25 23.2652L27.9837 10.2652C28.0207 9.98222 27.9966 9.69457 27.9132 9.42161C27.8298 9.14866 27.6889 8.89672 27.5 8.68274ZM8.19997 21.0002C8.16624 21.0021 8.13244 21.0021 8.09872 21.0002C7.84995 21.0015 7.60965 20.91 7.42474 20.7435C7.23983 20.5771 7.12359 20.3478 7.09872 20.1002L6.39872 13.1002C6.3722 12.8364 6.45159 12.5727 6.61944 12.3674C6.78728 12.162 7.02983 12.0318 7.29372 12.0052C7.55761 11.9787 7.82123 12.0581 8.02658 12.226C8.23193 12.3938 8.3622 12.6364 8.38872 12.9002L9.08872 19.9002C9.11672 20.164 9.03882 20.428 8.87215 20.6343C8.70548 20.8406 8.46369 20.9722 8.19997 21.0002ZM15 20.0002C15 20.2655 14.8946 20.5198 14.7071 20.7073C14.5195 20.8949 14.2652 21.0002 14 21.0002C13.7348 21.0002 13.4804 20.8949 13.2929 20.7073C13.1053 20.5198 13 20.2655 13 20.0002V13.0002C13 12.735 13.1053 12.4807 13.2929 12.2931C13.4804 12.1056 13.7348 12.0002 14 12.0002C14.2652 12.0002 14.5195 12.1056 14.7071 12.2931C14.8946 12.4807 15 12.735 15 13.0002V20.0002ZM9.20372 8.00024L14 2.51899L18.7962 8.00024H9.20372ZM21.595 13.1002L20.895 20.1002C20.8702 20.3467 20.7549 20.5752 20.5713 20.7414C20.3877 20.9077 20.1489 20.9999 19.9012 21.0002C19.8675 21.0021 19.8337 21.0021 19.8 21.0002C19.6693 20.9871 19.5425 20.9484 19.4268 20.8862C19.3111 20.8241 19.2088 20.7398 19.1257 20.6381C19.0426 20.5364 18.9803 20.4194 18.9424 20.2936C18.9046 20.1679 18.8918 20.0359 18.905 19.9052L19.605 12.9052C19.6315 12.6413 19.7618 12.3988 19.9671 12.231C20.1725 12.0631 20.4361 11.9837 20.7 12.0102C20.9639 12.0368 21.2064 12.167 21.3743 12.3724C21.5421 12.5777 21.6215 12.8414 21.595 13.1052V13.1002Z" fill="white"/>
</svg>
