<svg width="20" height="20" viewBox="0 0 20 20" fill="none" xmlns="http://www.w3.org/2000/svg">
<path d="M14.9993 16.6654C16.8403 16.6654 18.3327 15.1729 18.3327 13.332C18.3327 12.466 18.0024 11.6772 17.461 11.0845C16.8987 10.4689 16.7128 10.216 16.6389 9.39653C16.5037 7.89627 15.8618 6.43308 14.7134 5.28466C12.8973 3.46849 10.2939 2.91926 8.00163 3.63696C7.21581 3.883 6.90952 3.80795 6.12377 3.52644C5.77248 3.40059 5.39392 3.33203 4.99935 3.33203C3.1584 3.33203 1.66602 4.82441 1.66602 6.66536C1.66602 7.53135 1.99625 8.32021 2.53765 8.91286C3.10002 9.52853 3.28588 9.78136 3.35977 10.6009C3.49503 12.1011 4.13687 13.5643 5.28531 14.7128C7.10147 16.5289 9.70477 17.0781 11.9971 16.3604C12.7829 16.1144 13.0892 16.1894 13.8749 16.4709C14.2262 16.5968 14.6048 16.6654 14.9993 16.6654Z" fill="white"/>
<path d="M12.5 8.33268C12.5 7.41221 11.3807 6.66602 10 6.66602C8.61925 6.66602 7.5 7.41221 7.5 8.33268C7.5 9.25318 8.61925 9.99935 10 9.99935C11.3807 9.99935 12.5 10.7455 12.5 11.666C12.5 12.5865 11.3807 13.3327 10 13.3327C8.61925 13.3327 7.5 12.5865 7.5 11.666" stroke="#020007" stroke-width="1.25" stroke-linecap="round"/>
</svg>
