<svg width="32" height="32" viewBox="0 0 32 32" fill="none" xmlns="http://www.w3.org/2000/svg">
<path d="M10.668 29.3335C15.0862 29.3335 18.668 25.7518 18.668 21.3335C18.668 16.9152 15.0862 13.3335 10.668 13.3335C6.24969 13.3335 2.66797 16.9152 2.66797 21.3335C2.66797 25.7518 6.24969 29.3335 10.668 29.3335Z" fill="white"/>
<path d="M2.66797 12C2.66797 7.57715 6.24512 4 10.668 4L9.52512 6.28572" stroke="white" stroke-width="1.5" stroke-linecap="round" stroke-linejoin="round"/>
<path d="M29.332 20C29.332 24.4228 25.7548 28 21.332 28L22.4748 25.7143" stroke="white" stroke-width="1.5" stroke-linecap="round" stroke-linejoin="round"/>
<path fill-rule="evenodd" clip-rule="evenodd" d="M29.332 10.6665C29.332 15.0848 25.7503 18.6665 21.332 18.6665C21.0969 18.6665 20.8641 18.6564 20.6341 18.6365C20.301 14.7744 17.2238 11.6969 13.3619 11.3631C13.3421 11.1336 13.332 10.9012 13.332 10.6665C13.332 6.24824 16.9138 2.6665 21.332 2.6665C25.7503 2.6665 29.332 6.24824 29.332 10.6665Z" fill="white"/>
</svg>
