<svg width="20" height="20" viewBox="0 0 20 20" fill="none" xmlns="http://www.w3.org/2000/svg">
<path d="M2.90518 3.41972L3.43197 3.0834C3.30016 2.87694 3.0599 2.76651 2.81738 2.80091C2.57486 2.83533 2.3748 3.00824 2.30562 3.24321L2.90518 3.41972ZM1.66607 15.4154V14.7904C1.38329 14.7904 1.13574 14.9802 1.06244 15.2534C0.98913 15.5264 1.10834 15.8148 1.35312 15.9564L1.66607 15.4154ZM5.41607 13.7241L5.91869 14.0956L6.23805 13.6635L5.85877 13.2829L5.41607 13.7241ZM10.1002 7.48206L10.1404 8.10576L10.8896 8.05742L10.7062 7.32941L10.1002 7.48206ZM15.5376 4.16536L15.124 4.63395L15.3421 4.82641L15.6297 4.78353L15.5376 4.16536ZM18.3327 3.7487L18.8896 4.03259C18.9958 3.8241 18.9767 3.57368 18.8401 3.38371C18.7034 3.19373 18.4721 3.09602 18.2406 3.13053L18.3327 3.7487ZM16.6596 7.03034L16.1027 6.74645L16.0399 6.86969L16.0349 7.00793L16.6596 7.03034ZM6.66607 16.0404C4.93556 16.0404 3.33961 15.6614 1.97902 14.8744L1.35312 15.9564C2.93427 16.871 4.75371 17.2904 6.66607 17.2904V16.0404ZM1.66607 16.0404C3.06481 16.0404 4.12212 15.5654 4.82877 15.0874C5.18091 14.8492 5.44666 14.6099 5.62686 14.4271C5.71712 14.3355 5.78645 14.2575 5.83494 14.2001C5.8592 14.1714 5.8783 14.1478 5.89224 14.1301C5.89921 14.1213 5.9049 14.1139 5.90931 14.1081C5.91151 14.1052 5.91339 14.1027 5.91496 14.1006L5.91706 14.0979L5.91793 14.0966L5.91869 14.0956C5.91869 14.0956 5.91869 14.0956 5.41607 13.7241C4.91346 13.3527 4.91379 13.3522 4.91379 13.3522L4.91463 13.3511L4.91535 13.3501C4.91535 13.3501 4.9134 13.3526 4.91061 13.3562C4.90502 13.3633 4.89482 13.3759 4.88002 13.3935C4.85038 13.4286 4.80252 13.4828 4.73654 13.5497C4.60424 13.6839 4.40124 13.8675 4.12837 14.0521C3.58502 14.4196 2.76734 14.7904 1.66607 14.7904V16.0404ZM13.3327 3.95703C14.0201 3.95703 14.6462 4.21222 15.124 4.63395L15.9512 3.69678C15.2537 3.08123 14.3362 2.70703 13.3327 2.70703V3.95703ZM15.6297 4.78353L18.4249 4.36686L18.2406 3.13053L15.4454 3.5472L15.6297 4.78353ZM17.7759 3.46481L16.1027 6.74645L17.2163 7.31424L18.8896 4.03259L17.7759 3.46481ZM16.0349 7.00793C15.8549 12.0267 11.7291 16.0404 6.66607 16.0404V17.2904C12.4044 17.2904 17.0801 12.7415 17.2842 7.05275L16.0349 7.00793ZM10.0599 6.85836C7.38837 7.03072 4.89847 5.3804 3.43197 3.0834L2.37839 3.75605C4.01479 6.31916 6.89017 8.31546 10.1404 8.10576L10.0599 6.85836ZM10.7062 7.32941C10.2877 5.66782 11.6003 3.95703 13.3327 3.95703V2.70703C10.7778 2.70703 8.87882 5.19181 9.49407 7.6347L10.7062 7.32941ZM5.85877 13.2829C3.44327 10.8591 2.53571 6.88784 3.50474 3.59622L2.30562 3.24321C1.21556 6.94596 2.21601 11.3984 4.97337 14.1654L5.85877 13.2829Z" fill="white"/>
<path d="M5.41602 6.2487L2.91602 3.33203L2.49935 5.83203L2.91602 9.9987L5.41602 13.7487L4.58268 14.582L1.66602 15.4154L4.16602 16.6654H8.74935L12.916 14.582L15.8327 10.832L16.666 7.08203L18.3327 3.7487L15.8327 4.16536L14.5827 3.33203H12.0827L10.416 4.9987L9.99935 7.4987H8.74935L5.41602 6.2487Z" fill="white"/>
</svg>
